<svg xmlns="http://www.w3.org/2000/svg" width="93.732" height="95.072" viewBox="0 0 93.732 95.072">
  <path id="Icon_metro-cog" data-name="Icon metro-cog" d="M83.663,55.606A17.183,17.183,0,0,1,90.01,32.166L81.159,16.835a16.962,16.962,0,0,1-8.607,2.333A17.183,17.183,0,0,1,55.425,1.928h-17.7a16.959,16.959,0,0,1-2.283,8.642,17.183,17.183,0,0,1-23.473,6.224L3.115,32.125a16.964,16.964,0,0,1,6.323,6.287A17.183,17.183,0,0,1,3.13,61.83l8.851,15.331a16.96,16.96,0,0,1,8.567-2.309A17.182,17.182,0,0,1,37.675,92h17.7a16.964,16.964,0,0,1,2.284-8.551A17.183,17.183,0,0,1,81.1,77.2l8.851-15.331a16.965,16.965,0,0,1-6.283-6.265ZM46.562,65.2A18.237,18.237,0,1,1,64.8,46.964,18.237,18.237,0,0,1,46.562,65.2Z" transform="translate(0.309 0.572)" fill="none" stroke="#fff" stroke-width="5"/>
</svg>
