<svg xmlns="http://www.w3.org/2000/svg" width="80.418" height="89.06" viewBox="0 0 80.418 89.06">
  <path id="Icon_simple-launchpad" data-name="Icon simple-launchpad" d="M74.439,65.258,58.952,56.327,42.239,65.985V83.862l32.2-18.6ZM36.76,83.862V65.975L20.04,56.324,4.561,65.258Zm2.722-22.625,16.734-9.662v-19.3L39.5,22.629,22.783,32.273V51.585l16.706,9.648-.007,0ZM1.832,23.349V60.531l15.486-8.942V32.283L1.828,23.342l0,.007Zm68.539,3.917-8.68,5.018v19.3L77.171,60.52V23.335ZM4.561,18.6l15.5,8.942,16.706-9.651V.01Zm54.391,8.942L74.446,18.6,42.232,0V17.894Z" transform="translate(1.746 2.599)" fill="none" stroke="#fff" stroke-width="3"/>
</svg>
