<svg xmlns="http://www.w3.org/2000/svg" width="125.682" height="125.681" viewBox="0 0 125.682 125.681">
  <path id="Icon_metro-target" data-name="Icon metro-target" d="M128.252,56.914H115.865a51.181,51.181,0,0,0-42.6-42.6V1.928H57.556V14.315a51.181,51.181,0,0,0-42.6,42.6H2.571v15.71H14.958a51.181,51.181,0,0,0,42.6,42.6v12.387h15.71V115.222a51.181,51.181,0,0,0,42.6-42.6h12.387V56.914Zm-28.374,0H87.634A23.629,23.629,0,0,0,73.266,42.546V30.3A35.464,35.464,0,0,1,99.878,56.914ZM65.411,72.624a7.855,7.855,0,1,1,7.855-7.855A7.855,7.855,0,0,1,65.411,72.624ZM57.556,30.3V42.546A23.628,23.628,0,0,0,43.189,56.914H30.945A35.465,35.465,0,0,1,57.556,30.3ZM30.945,72.624H43.189A23.628,23.628,0,0,0,57.556,86.991V99.236A35.464,35.464,0,0,1,30.945,72.624ZM73.266,99.236V86.991A23.629,23.629,0,0,0,87.634,72.624H99.878A35.464,35.464,0,0,1,73.266,99.236Z" transform="translate(-2.571 -1.928)" fill="#fff"/>
</svg>
