<svg xmlns="http://www.w3.org/2000/svg" width="106.933" height="129.652" viewBox="0 0 106.933 129.652">
  <g id="Icon_ionic-ios-swap" data-name="Icon ionic-ios-swap" transform="translate(-23.972 54.384) rotate(-30)">
    <path id="Path_57" data-name="Path 57" d="M64.725,50.512a3.453,3.453,0,0,1-.027-4.9L77.26,32.868H17.382a3.46,3.46,0,0,1,0-6.919H77.233L64.672,13.2A3.463,3.463,0,1,1,69.6,8.331L87.958,26.96h0a3.385,3.385,0,0,1,.719,1.091,3.3,3.3,0,0,1,.266,1.331,3.469,3.469,0,0,1-.985,2.422L69.6,50.432A3.422,3.422,0,0,1,64.725,50.512Z" transform="translate(32.486 0)" fill="#fff"/>
    <path id="Path_58" data-name="Path 58" d="M26.475,60.215a3.453,3.453,0,0,0,.027-4.9L13.967,42.571H73.819a3.46,3.46,0,1,0,0-6.919H13.967L26.528,22.9a3.463,3.463,0,1,0-4.923-4.87L3.242,36.663h0a3.385,3.385,0,0,0-.719,1.091,3.3,3.3,0,0,0-.266,1.331,3.469,3.469,0,0,0,.985,2.422L21.6,60.136A3.422,3.422,0,0,0,26.475,60.215Z" transform="translate(0 27.022)" fill="#fff"/>
  </g>
</svg>
